<svg xmlns="http://www.w3.org/2000/svg" xmlns:xlink="http://www.w3.org/1999/xlink" xmlns:lucid="lucid" width="1982" height="2022.5"><g transform="translate(-1619 -239)" lucid:page-tab-id="0_0"><path d="M2220 246a6 6 0 0 1 6-6h148a6 6 0 0 1 6 6v108a6 6 0 0 1-6 6h-148a6 6 0 0 1-6-6z" stroke="#003d87" stroke-width="2" fill="#6db1ff"/><use xlink:href="#a" transform="matrix(1,0,0,1,2232,252) translate(19.358024691358025 53.77777777777778)"/><use xlink:href="#b" transform="matrix(1,0,0,1,2232,252) translate(69.85185185185185 53.77777777777778)"/><path d="M2640 666a6 6 0 0 1 6-6h148a6 6 0 0 1 6 6v108a6 6 0 0 1-6 6h-148a6 6 0 0 1-6-6z" stroke="#003d87" stroke-width="2" fill="#6db1ff"/><use xlink:href="#c" transform="matrix(1,0,0,1,2652,672) translate(4.512345679012341 53.77777777777778)"/><use xlink:href="#d" transform="matrix(1,0,0,1,2652,672) translate(88.3395061728395 53.77777777777778)"/><path d="M2840 1306a6 6 0 0 1 6-6h148a6 6 0 0 1 6 6v108a6 6 0 0 1-6 6h-148a6 6 0 0 1-6-6z" stroke="#003d87" stroke-width="2" fill="#6db1ff"/><use xlink:href="#e" transform="matrix(1,0,0,1,2852,1312) translate(18.061728395061735 53.77777777777778)"/><use xlink:href="#f" transform="matrix(1,0,0,1,2852,1312) translate(82.19753086419753 53.77777777777778)"/><path d="M2700.47 1482.62h-.94v-67.25h.94zm138.03-122.14h-132.48l-.88.06-.85.2-.8.34-.75.45-.66.56-.57.65-.45.74-.33.8-.2.84-.08.88v28.02h-.94v-28.06l.07-1 .24-.98.4-.94.52-.87.66-.78.77-.66.86-.53.94-.4 1-.23.98-.07h132.52z" stroke="#3a414a" stroke-width=".05" fill="#3a414a"/><path d="M2839 1360.47h-.5v-.94h.5z" fill="#3a414a"/><path stroke="#3a414a" stroke-width=".05" fill="#3a414a"/><path d="M2700 1497.38l-4.64-14.26h9.28z" fill="#3a414a"/><path d="M2700 1498.92l-5.3-16.28h10.6zm-3.98-15.33l3.98 12.25 3.98-12.26z" stroke="#3a414a" stroke-width=".05" fill="#3a414a"/><use xlink:href="#g" transform="matrix(1,0,0,1,2688.1975308641977,1394.0368557696343) translate(0 14.222222222222223)"/><path d="M2620 1506a6 6 0 0 1 6-6h148a6 6 0 0 1 6 6v108a6 6 0 0 1-6 6h-148a6 6 0 0 1-6-6z" stroke="#003d87" stroke-width="2" fill="#6db1ff"/><use xlink:href="#h" transform="matrix(1,0,0,1,2632,1512) translate(4.080246913580254 53.77777777777778)"/><use xlink:href="#f" transform="matrix(1,0,0,1,2632,1512) translate(96.17901234567901 53.77777777777778)"/><path d="M3140.47 1502.62h-.94v-76.03h.94zM3135 1359.6l1 .24.94.4.87.52.78.66.66.77.53.86.4.94.23 1 .07.98v39.28h-.94v-39.24l-.07-.88-.2-.85-.34-.8-.45-.75-.56-.66-.65-.57-.74-.45-.8-.33-.84-.2-.88-.08H3001.5v-.94h132.52z" stroke="#e81313" stroke-width=".05" fill="#e81313"/><path d="M3001.5 1360.47h-.5v-.94h.5z" fill="#e81313"/><path stroke="#e81313" stroke-width=".05" fill="#e81313"/><path d="M3140 1517.38l-4.64-14.26h9.28z" fill="#e81313"/><path d="M3140 1518.92l-5.3-16.28h10.6zm-3.98-15.33l3.98 12.25 3.98-12.26z" stroke="#e81313" stroke-width=".05" fill="#e81313"/><use xlink:href="#i" transform="matrix(1,0,0,1,3124.6913580246915,1405.2562852789904) translate(0 14.222222222222223)"/><path d="M3060 1526a6 6 0 0 1 6-6h148a6 6 0 0 1 6 6v108a6 6 0 0 1-6 6h-148a6 6 0 0 1-6-6z" stroke="#003d87" stroke-width="2" fill="#6db1ff"/><use xlink:href="#j" transform="matrix(1,0,0,1,3072,1532) translate(0.808641975308646 53.77777777777778)"/><use xlink:href="#k" transform="matrix(1,0,0,1,3072,1532) translate(77.22839506172839 53.77777777777778)"/><path d="M3261.47 1574.02l-.07 1-.24.98-.4.94-.52.87-.66.78-.77.66-.86.53-.94.4-1 .23-.98.07h-33.52v-.94h33.48l.88-.07.85-.2.8-.34.75-.45.66-.56.57-.65.45-.74.33-.8.2-.84.08-.88v-191.5h.94zM3256 719.6l1 .24.94.4.87.52.78.66.66.77.53.86.4.94.23 1 .07.98v635.18h-.94V726.02l-.08-.88-.2-.85-.33-.8-.45-.75-.56-.66-.65-.57-.74-.45-.8-.33-.84-.2-.88-.07h-437.6v-.96h437.64z" stroke="#3a414a" stroke-width=".05" fill="#3a414a"/><path d="M3221.5 1580.47h-.5v-.94h.5z" fill="#3a414a"/><path stroke="#3a414a" stroke-width=".05" fill="#3a414a"/><path d="M2816.88 724.63l-14.26-4.63 14.26-4.63z" fill="#3a414a"/><path d="M2817.36 725.3l-16.28-5.3 16.28-5.3zm-13.2-5.3l12.25 3.98v-7.96z" stroke="#3a414a" stroke-width=".05" fill="#3a414a"/><use xlink:href="#l" transform="matrix(1,0,0,1,3236.851801851852,1361.161164571931) translate(0 14.222222222222223)"/><path d="M2720 781.5V834a6 6 0 0 0 6 6h8a6 6 0 0 1 6 6v36.62" stroke="#3a414a" fill="none"/><path d="M2720.47 781.5h-.94v-.5h.94z" stroke="#3a414a" stroke-width=".05" fill="#3a414a"/><path d="M2740 897.38l-4.64-14.26h9.28z" stroke="#3a414a" fill="#3a414a"/><path d="M2660 906a6 6 0 0 1 6-6h148a6 6 0 0 1 6 6v108a6 6 0 0 1-6 6h-148a6 6 0 0 1-6-6z" stroke="#003d87" stroke-width="2" fill="#6db1ff"/><use xlink:href="#m" transform="matrix(1,0,0,1,2672,912) translate(1.6419753086419746 53.77777777777778)"/><use xlink:href="#n" transform="matrix(1,0,0,1,2672,912) translate(86.76543209876544 53.77777777777778)"/><path d="M2520.47 1742.62h-.94v-117.3h.94zm0-138.62h-.94v-159.37h.94zm138.03-643.52h-132.48l-.88.06-.85.2-.8.34-.75.45-.66.56-.57.65-.45.74-.33.8-.2.84-.08.88v457.28h-.94V965.98l.07-1 .24-.98.4-.94.52-.87.66-.78.77-.66.86-.53.94-.4 1-.23.98-.08h132.52z" stroke="#3a414a" stroke-width=".05" fill="#3a414a"/><path d="M2659 960.48h-.5v-.96h.5z" fill="#3a414a"/><path stroke="#3a414a" stroke-width=".05" fill="#3a414a"/><path d="M2520 1757.38l-4.64-14.26h9.28z" fill="#3a414a"/><path d="M2520 1758.92l-5.3-16.28h10.6zm-3.98-15.33l3.98 12.25 3.98-12.26z" stroke="#3a414a" stroke-width=".05" fill="#3a414a"/><use xlink:href="#i" transform="matrix(1,0,0,1,2504.6913580246915,1423.2949275917524) translate(0 14.222222222222223)"/><path d="M2880 1100.67a6 6 0 0 1 6-6h148a6 6 0 0 1 6 6v118.66a6 6 0 0 1-6 6h-148a6 6 0 0 1-6-6z" stroke="#003d87" stroke-width="2" fill="#6db1ff"/><use xlink:href="#o" transform="matrix(1,0,0,1,2892,1106.6666666666667) translate(7.598765432098773 21.12152777777778)"/><use xlink:href="#p" transform="matrix(1,0,0,1,2892,1106.6666666666667) translate(85.25308641975309 21.12152777777778)"/><use xlink:href="#q" transform="matrix(1,0,0,1,2892,1106.6666666666667) translate(2.6604938271604937 47.78819444444444)"/><use xlink:href="#r" transform="matrix(1,0,0,1,2892,1106.6666666666667) translate(34.69753086419753 47.78819444444444)"/><use xlink:href="#s" transform="matrix(1,0,0,1,2892,1106.6666666666667) translate(49.48148148148148 74.45486111111111)"/><use xlink:href="#t" transform="matrix(1,0,0,1,2892,1106.6666666666667) translate(20.53086419753086 101.12152777777777)"/><path d="M2960.47 1077.28h-.94v-18.4h.94zM2955 959.6l1 .24.94.4.87.52.78.66.66.77.53.86.4.94.23 1 .07.98v71.58h-.94v-71.54l-.07-.88-.2-.85-.34-.8-.45-.75-.56-.66-.65-.57-.74-.45-.8-.33-.84-.2-.88-.07H2821.5v-.96h132.52z" stroke="#e81313" stroke-width=".05" fill="#e81313"/><path d="M2821.5 960.48h-.5v-.96h.5z" fill="#e81313"/><path stroke="#e81313" stroke-width=".05" fill="#e81313"/><path d="M2960 1092.05l-4.64-14.27h9.28z" fill="#e81313"/><path d="M2960 1093.6l-5.3-16.3h10.6zm-3.98-15.34l3.98 12.25 3.98-12.24z" stroke="#e81313" stroke-width=".05" fill="#e81313"/><use xlink:href="#u" transform="matrix(1,0,0,1,2949.185185185185,1037.555547196742) translate(0 14.222222222222223)"/><path d="M2960 1226.83v29.84a6 6 0 0 1-6 6h-21.33a6 6 0 0 0-6 6v13.95" stroke="#3a414a" fill="none"/><path d="M2960.47 1226.85h-.94v-.52h.94z" stroke="#3a414a" stroke-width=".05" fill="#3a414a"/><path d="M2926.67 1297.38l-4.64-14.26h9.27z" stroke="#3a414a" fill="#3a414a"/><path d="M2440 1766a6 6 0 0 1 6-6h148a6 6 0 0 1 6 6v108a6 6 0 0 1-6 6h-148a6 6 0 0 1-6-6z" stroke="#003d87" stroke-width="2" fill="#6db1ff"/><use xlink:href="#v" transform="matrix(1,0,0,1,2452,1772) translate(48.27777777777778 53.77777777777778)"/><path d="M2641.47 2154.02l-.07 1-.24.98-.4.94-.52.87-.66.78-.77.66-.86.53-.94.4-1 .23-.98.07h-46.97v-.94h46.93l.88-.07.85-.2.8-.34.75-.45.66-.56.57-.65.45-.74.33-.8.2-.84.08-.88v-46.1h.94zM2636 1819.6l1 .24.94.4.87.52.78.66.66.77.53.86.4.94.23 1 .07.98v260.56h-.94v-260.52l-.08-.88-.2-.85-.33-.8-.45-.75-.56-.66-.65-.57-.74-.45-.8-.33-.84-.2-.88-.08h-33.48v-.94h33.52z" stroke="#3a414a" stroke-width=".05" fill="#3a414a"/><path d="M2601.5 1820.47h-.5v-.94h.5z" fill="#3a414a"/><path stroke="#3a414a" stroke-width=".05" fill="#3a414a"/><path d="M2587.55 2164.64l-14.27-4.64 14.27-4.64z" fill="#3a414a"/><path d="M2588.03 2165.3l-16.28-5.3 16.28-5.3zm-13.2-5.3l12.24 3.98v-7.96z" stroke="#3a414a" stroke-width=".05" fill="#3a414a"/><use xlink:href="#w" transform="matrix(1,0,0,1,2626.1851351851856,2086.5410594420887) translate(0 14.222222222222223)"/><path d="M2370.14 2153.98l.07.88.2.85.34.8.46.75.56.66.66.57.74.45.8.33.84.2.88.08h17.6v.94h-17.63l-1-.07-1-.24-.92-.4-.87-.52-.77-.66-.67-.77-.53-.86-.4-.94-.23-1-.08-.98v-99.24h.94zm68.36-333.5h-62.82l-.88.06-.84.2-.8.34-.74.45-.66.56-.56.65-.45.74-.34.8-.2.84-.06.88v207.43h-.95v-207.47l.07-1 .24-.98.4-.94.53-.87.66-.78.76-.66.87-.53.93-.4 1-.23 1-.07h62.84z" stroke="#e81313" stroke-width=".05" fill="#e81313"/><path d="M2439 1820.47h-.5v-.94h.5z" fill="#e81313"/><path stroke="#e81313" stroke-width=".05" fill="#e81313"/><path d="M2408.05 2160l-14.27 4.64v-9.28z" fill="#e81313"/><path d="M2409.6 2160l-16.3 5.3v-10.6zm-15.34 3.98l12.25-3.98-12.24-3.98z" stroke="#e81313" stroke-width=".05" fill="#e81313"/><use xlink:href="#u" transform="matrix(1,0,0,1,2358.8519018518514,2033.4510561301997) translate(0 14.222222222222223)"/><path d="M2529.8 1742.62h-.94v-117.3h.95zm88.7-182.14h-83.15l-.88.06-.84.2-.8.34-.74.45-.67.56-.57.65-.45.74-.32.8-.2.84-.07.88V1604h-.94v-38.02l.08-1 .23-.98.4-.94.52-.87.65-.78.78-.66.86-.53.93-.4 1-.23 1-.07h83.17z" stroke="#3a414a" stroke-width=".05" fill="#3a414a"/><path d="M2619 1560.47h-.5v-.94h.5z" fill="#3a414a"/><path stroke="#3a414a" stroke-width=".05" fill="#3a414a"/><path d="M2529.33 1757.38l-4.63-14.26h9.27z" fill="#3a414a"/><path d="M2529.33 1758.92l-5.3-16.28h10.6zm-3.98-15.33l3.98 12.25 4-12.26z" stroke="#3a414a" stroke-width=".05" fill="#3a414a"/><use xlink:href="#w" transform="matrix(1,0,0,1,2514.518516941971,1603.9999960585735) translate(0 14.222222222222223)"/><path d="M2080 1268c0 6.63-26.86 12-60 12s-60-5.37-60-12v-96c0-6.63 26.86-12 60-12s60 5.37 60 12z" stroke="#003d87" stroke-width="2" fill="#b8f5ed"/><path d="M2080 1172c0 6.63-26.86 12-60 12s-60-5.37-60-12" stroke="#003d87" stroke-width="2" fill="none"/><use xlink:href="#x" transform="matrix(1,0,0,1,1965,1189) translate(26.666666666666664 47.34027777777778)"/><path d="M2658.5 921.33h-10.04m-10.04 0h-20.08m-10.04 0h-20.08m-10.04 0h-20.08m-10.04 0h-20.08m-10.04 0h-20.08m-10.04 0h-20.07m-10.04 0h-20.07m-10.04 0h-20.1m-10.03 0h-20.08m-10.05 0h-20.08m-10.04 0h-20.08m-10.04 0h-20.07m-10.04 0h-20.1m-10.03 0h-20.08m-10.05 0h-20.07m-10.04 0h-20.08m-10.04 0h-20.08m-10.04 0h-20.08m-10.04 0h-20.08m-10.04 0h-20.08m-10.04 0H2026l-.94.08-.9.23-.88.36-.8.48-.72.6-.6.73-.5.8-.37.88-.23.9-.07.95v10.25m0 10.26v20.5m0 10.25v20.5m0 10.25v20.5m0 10.25v20.5m0 10.26v20.5m0 10.25v20.5m0 10.26v10.26" stroke="#ba23f6" fill="none"/><path d="M2659 921.8h-.5v-.94h.5z" stroke="#ba23f6" stroke-width=".05" fill="#ba23f6"/><path d="M2020 1157.38l-4.63-14.26h9.27z" stroke="#ba23f6" fill="#ba23f6"/><path d="M2491.14 2255.02l-.08 1-.23.98-.4.94-.52.87-.65.78-.78.66-.86.53-.93.4-1 .23-1 .07h-10.2v-.94h10.18l.88-.08.84-.2.8-.33.74-.45.67-.56.57-.65.45-.74.32-.8.2-.84.07-.88v-11.15h.94zm-26.86 6.45h-20.38v-.94h20.38zm-30.58 0h-20.38v-.94h20.38zm-30.57 0h-20.4v-.94h20.4zm-30.58 0h-20.4v-.94h20.4zm-30.58 0h-20.38v-.94h20.37zm-30.58 0H2291v-.94h20.4zm-30.6 0h-20.37v-.94h20.4zm-30.56 0h-20.4v-.94h20.4zm-30.58 0h-20.4v-.94h20.4zm-30.58 0h-20.38v-.94h20.38zm-30.58 0h-20.38v-.94h20.38zm-30.57 0h-20.4v-.94h20.4zm-30.58 0h-20.4v-.94h20.4zm-30.58 0h-20.38l-.02-.94h20.4zm-46.3-6.5l.07.9.2.84.34.8.45.75.56.66.65.57.74.45.8.33.84.2.88.08h10.17v.94h-10.22l-1-.07-.98-.24-.94-.4-.87-.52-.78-.66-.66-.77-.53-.86-.4-.94-.23-1-.07-.98v-10h.94zm0-19.92h-.94v-19.95h.94zm470.67-2.38h-.95v-11.17h.94zm-470.66-27.55h-.95v-19.95h.94zm0-29.92h-.95v-19.95h.94zm0-29.93h-.95v-19.95h.94zm0-29.92h-.95v-19.95h.94zm0-29.93h-.95v-19.95h.94zm0-29.92h-.95v-19.95h.94zm0-29.93h-.95v-19.95h.94zm0-29.92h-.95v-19.96h.94zm0-29.93h-.95v-19.95h.94zm0-29.92h-.95v-19.96h.94zm0-29.93h-.95v-19.95h.94zm0-29.93h-.95V1856h.94zm0-29.92h-.95v-19.95h.94zm0-29.93h-.95v-19.96h.94zm0-29.93h-.95v-19.95h.94zm0-29.93h-.95v-19.95h.94zm0-29.92h-.95v-19.95h.94zm0-29.93h-.95v-19.96h.94zm0-29.94h-.95v-19.94h.94zm0-29.92h-.95v-19.95h.94zm0-29.93h-.95v-19.94h.94zm0-29.9h-.95v-19.96h.94zm0-29.94h-.95v-19.95h.94zm0-29.92h-.95v-19.95h.94zm0-29.93h-.95v-19.94h.94zm0-29.9h-.95v-19.96h.94zm0-29.94h-.95v-19.95h.94zm0-29.92h-.95v-19.95h.94zm0-29.93h-.95v-19.94h.94zm0-29.9h-.95v-19.96h.94zm0-29.94h-.95v-9.98h.94z" stroke="#ba23f6" stroke-width=".05" fill="#ba23f6"/><path d="M2491.14 2221.5h-.95v-.5h.94z" fill="#ba23f6"/><path stroke="#ba23f6" stroke-width=".05" fill="#ba23f6"/><path d="M2024.63 1296.88h-9.27l4.64-14.26z" fill="#ba23f6"/><path d="M2025.3 1297.36h-10.6l5.3-16.28zm-9.28-.95h7.96l-3.98-12.24z" stroke="#ba23f6" stroke-width=".05" fill="#ba23f6"/><path d="M1958.5 1220h-161.12" stroke="#3a414a" fill="none"/><path d="M1959 1220.47h-.5v-.94h.5z" stroke="#3a414a" stroke-width=".05" fill="#3a414a"/><path d="M1782.62 1220l14.26-4.63v9.27z" stroke="#3a414a" fill="#3a414a"/><path d="M1620 1166a6 6 0 0 1 6-6h148a6 6 0 0 1 6 6v108a6 6 0 0 1-6 6h-148a6 6 0 0 1-6-6z" stroke="#003d87" stroke-width="2" fill="#6db1ff"/><use xlink:href="#y" transform="matrix(1,0,0,1,1632,1172) translate(40.25308641975309 38.77777777777778)"/><use xlink:href="#z" transform="matrix(1,0,0,1,1632,1172) translate(19.35802469135802 65.44444444444446)"/><path d="M3600 1288c0 6.63-26.86 12-60 12s-60-5.37-60-12v-96c0-6.63 26.86-12 60-12s60 5.37 60 12z" stroke="#003d87" stroke-width="2" fill="#b8f5ed"/><path d="M3600 1192c0 6.63-26.86 12-60 12s-60-5.37-60-12" stroke="#003d87" stroke-width="2" fill="none"/><use xlink:href="#A" transform="matrix(1,0,0,1,3485,1209) translate(17.99382716049383 47.34027777777778)"/><path d="M2700.47 1716.65l.07.88.2.84.34.8.45.74.56.67.65.57.74.45.8.32.84.2.88.07h10.08v.94h-10.12l-1-.08-.98-.23-.94-.4-.87-.52-.78-.65-.66-.78-.53-.86-.4-.93-.23-1-.07-1v-10.58h.94zm45.92 6.5h-20.2v-.96h20.2zm30.28 0h-20.2v-.96h20.2zm30.3 0h-20.2v-.96h20.2zm30.28 0h-20.2v-.96h20.2zm30.3 0h-20.2v-.96h20.2zm30.3 0h-20.2v-.96h20.2zm30.28 0h-20.2v-.96h20.2zm30.3 0h-20.2v-.96h20.2zm30.28 0h-20.2v-.96h20.2zm30.3 0h-20.2v-.96h20.2zm30.3 0h-20.2v-.96h20.2zm30.28 0h-20.2v-.96h20.2zm30.3 0h-20.2v-.96h20.2zm30.28 0h-20.2v-.96h20.2zm30.3 0h-20.2v-.96h20.2zm30.28 0h-20.2v-.96h20.2zm30.3 0h-20.2v-.96h20.2zm30.3 0h-20.2v-.96h20.2zm30.28 0h-20.2v-.96h20.2zm30.3 0h-20.2v-.96h20.2zm30.28 0h-20.2v-.96h20.2zm30.3 0h-20.2v-.96h20.2zm30.3 0h-20.2v-.96h20.2zm26.65-6.47l-.07 1-.24 1-.4.93-.52.87-.66.78-.77.66-.86.54-.94.4-1 .22-.98.08h-10.12v-.95h10.08l.88-.08.85-.2.8-.33.75-.46.66-.57.57-.66.45-.73.33-.8.2-.84.08-.88v-9.8h.94zm0-19.62h-.94v-19.62h.94zm-739-1.54h-.94v-21.15h.94zm739-27.88h-.94v-19.6h.94zm-739-3.84h-.94v-21.15h.94zm739-25.58h-.94v-19.6h.94zm-739-6.15h-.94v-10.57h.94zm739-23.26h-.94v-19.6h.94zm0-29.4h-.94v-19.62h.94zm0-29.43h-.94v-19.6h.94zm0-29.4h-.94v-19.63h.94zm0-29.43h-.94v-19.6h.94zm0-29.42h-.94v-19.6h.94zm0-29.4h-.94v-19.63h.94zm0-29.43h-.94v-19.62h.94zm0-29.43h-.94v-19.6h.94zm0-29.4h-.94v-19.63h.94zm0-29.43h-.94v-19.6h.94zm0-29.42h-.94v-19.6h.94zm23.15-44.75h-17.6l-.88.07-.85.2-.8.34-.75.45-.66.56-.57.65-.45.74-.33.8-.2.84-.08.88v9.8h-.94v-9.84l.07-1 .24-.98.4-.94.52-.87.66-.78.77-.66.86-.53.94-.4 1-.23.98-.07h17.64z" stroke="#ba23f6" stroke-width=".05" fill="#ba23f6"/><path d="M2700.47 1621.5h-.94v-.5h.94z" fill="#ba23f6"/><path stroke="#ba23f6" stroke-width=".05" fill="#ba23f6"/><path d="M3477.38 1240l-14.26 4.63v-9.27z" fill="#ba23f6"/><path d="M3478.92 1240l-16.28 5.3v-10.6zm-15.33 3.98l12.24-3.98-12.25-3.98zM3140.47 1674.98l.07.88.2.85.34.8.45.75.56.66.65.57.74.45.8.33.84.2.88.08h9.55v.94h-9.6l-.98-.07-1-.24-.94-.4-.87-.52-.78-.66-.66-.77-.53-.86-.4-.94-.23-1-.07-.98v-11.2h.94zm43.8 6.5h-19.14v-.95h19.14zm28.7 0h-19.14v-.95h19.14zm28.7 0h-19.14v-.95h19.14zm28.7 0h-19.14v-.95h19.14zm28.7 0h-19.14v-.95h19.14zm28.7 0h-19.14v-.95h19.14zm28.7 0h-19.14v-.95h19.14zm28.7 0h-19.14v-.95h19.14zm28.7 0h-19.14v-.95h19.14zm25.6-6.46l-.07 1-.24.98-.4.94-.52.87-.66.78-.77.66-.86.53-.94.4-1 .23-.98.07h-9.6v-.94h9.56l.88-.08.85-.2.8-.33.75-.45.66-.56.57-.65.45-.74.33-.8.2-.84.08-.88v-10.2h.94zm0-20.45h-.94v-20.43h.94zm-299-1.9h-.94v-11.17h.94zm299-28.74h-.94v-20.43h.94zm0-30.64h-.94v-20.44h.94zm0-30.66h-.94v-20.43h.94zm0-30.64h-.94v-20.43h.94zm0-30.64h-.94v-20.43h.94zm0-30.65h-.94v-20.4h.94zm0-30.63h-.94v-20.43h.94zm0-30.64h-.94V1389h.94zm0-30.64h-.94v-20.44h.94zm0-30.66h-.94v-20.43h.94zm0-30.64h-.94v-20.43h.94zm0-30.64h-.94v-20.43h.94zm23.15-46.38h-17.6l-.88.06-.85.2-.8.34-.75.45-.66.56-.57.65-.45.74-.33.8-.2.84-.08.88v10.2h-.94v-10.24l.07-1 .24-.98.4-.94.52-.87.66-.78.77-.66.86-.53.94-.4 1-.23.98-.07h17.64z" stroke="#ba23f6" stroke-width=".05" fill="#ba23f6"/><path d="M3140.47 1641.5h-.94v-.5h.94z" fill="#ba23f6"/><path stroke="#ba23f6" stroke-width=".05" fill="#ba23f6"/><path d="M3477.38 1240l-14.26 4.63v-9.27z" fill="#ba23f6"/><path d="M3478.92 1240l-16.28 5.3v-10.6zm-15.33 3.98l12.24-3.98-12.25-3.98z" stroke="#ba23f6" stroke-width=".05" fill="#ba23f6"/><path d="M2410.67 2106a6 6 0 0 1 6-6h148a6 6 0 0 1 6 6v108a6 6 0 0 1-6 6h-148a6 6 0 0 1-6-6z" stroke="#003d87" stroke-width="2" fill="#6db1ff"/><use xlink:href="#B" transform="matrix(1,0,0,1,2422.6666666666665,2112) translate(29.172839506172842 38.77777777777778)"/><use xlink:href="#C" transform="matrix(1,0,0,1,2422.6666666666665,2112) translate(28.524691358024683 65.44444444444446)"/><path d="M2821.47 1893.98l.07.88.2.85.34.8.45.75.56.66.65.57.74.45.8.33.84.2.88.08h536.96l.88-.07.85-.2.8-.34.75-.45.66-.56.57-.65.45-.74.33-.8.2-.84.08-.88v-53.3h.94V1894l-.07 1-.24.98-.4.94-.52.87-.66.78-.77.66-.86.53-.94.4-1 .23-.98.07h-537.04l-1-.07-.98-.24-.94-.4-.87-.52-.78-.66-.66-.77-.53-.86-.4-.94-.23-1-.07-.98v-249.17h.94zM3365 1159.6l1 .24.94.4.87.52.78.66.66.77.53.86.4.94.23 1 .07.98v653.35h-.94v-653.3l-.07-.9-.2-.84-.34-.8-.45-.75-.56-.66-.65-.57-.74-.45-.8-.33-.84-.2-.88-.08h-306.6v-.94h306.64zm-549 400l1 .24.94.4.87.52.78.66.66.77.53.86.4.94.23 1 .07.98v57.54h-.94v-57.5l-.08-.88-.2-.85-.33-.8-.45-.75-.56-.66-.65-.57-.74-.45-.8-.33-.84-.2-.88-.08h-33.48v-.94h33.52z" stroke="#e81313" stroke-width=".05" fill="#e81313"/><path d="M2781.5 1560.47h-.5v-.94h.5z" fill="#e81313"/><path stroke="#e81313" stroke-width=".05" fill="#e81313"/><path d="M3056.88 1164.63l-14.26-4.63 14.26-4.63z" fill="#e81313"/><path d="M3057.36 1165.3l-16.28-5.3 16.28-5.3zm-13.2-5.3l12.25 3.98v-7.96z" stroke="#e81313" stroke-width=".05" fill="#e81313"/><use xlink:href="#D" transform="matrix(1,0,0,1,3356.6913580246915,1819.3333333333333) translate(0 14.222222222222223)"/><use xlink:href="#u" transform="matrix(1,0,0,1,2810.1851351851856,1623.5181424603466) translate(0 14.222222222222223)"/><path d="M2300 361.5v141.12" stroke="#3a414a" fill="none"/><path d="M2300.47 361.5h-.94v-.5h.94z" stroke="#3a414a" stroke-width=".05" fill="#3a414a"/><path d="M2300 517.38l-4.64-14.26h9.28z" stroke="#3a414a" fill="#3a414a"/><path d="M2220 526a6 6 0 0 1 6-6h148a6 6 0 0 1 6 6v108a6 6 0 0 1-6 6h-148a6 6 0 0 1-6-6z" stroke="#003d87" stroke-width="2" fill="#6db1ff"/><use xlink:href="#E" transform="matrix(1,0,0,1,2232,532) translate(1.9506172839506206 38.77777777777778)"/><use xlink:href="#F" transform="matrix(1,0,0,1,2232,532) translate(56.271604938271615 38.77777777777778)"/><use xlink:href="#G" transform="matrix(1,0,0,1,2232,532) translate(11.302469135802468 65.44444444444446)"/><use xlink:href="#H" transform="matrix(1,0,0,1,2232,532) translate(79.08024691358024 65.44444444444446)"/><path d="M2715 579.6l1 .24.94.4.87.52.78.66.66.77.53.86.4.94.23 1 .07.98v56.64h-.94v-56.6l-.07-.88-.2-.85-.34-.8-.45-.75-.56-.66-.65-.57-.74-.45-.8-.33-.84-.2-.88-.07h-141.16v-.96H2714zm-333.5.88v-.96h161.68v.96z" stroke="#e81313" stroke-width=".05" fill="#e81313"/><path d="M2381.5 580.48h-.5v-.96h.5z" fill="#e81313"/><path stroke="#e81313" stroke-width=".05" fill="#e81313"/><path d="M2720 657.38l-4.64-14.26h9.28z" fill="#e81313"/><path d="M2720 658.92l-5.3-16.28h10.6zm-3.98-15.33l3.98 12.25 3.98-12.26z" stroke="#e81313" stroke-width=".05" fill="#e81313"/><use xlink:href="#w" transform="matrix(1,0,0,1,2543.185185185185,569.3333333333334) translate(0 14.222222222222223)"/><path d="M2218.5 580H2166a6 6 0 0 0-6 6v116.62" stroke="#3a414a" fill="none"/><path d="M2219 580.48h-.5v-.96h.5z" stroke="#3a414a" stroke-width=".05" fill="#3a414a"/><path d="M2160 717.38l-4.64-14.26h9.28z" stroke="#3a414a" fill="#3a414a"/><path d="M2080 726a6 6 0 0 1 6-6h148a6 6 0 0 1 6 6v108a6 6 0 0 1-6 6h-148a6 6 0 0 1-6-6z" stroke="#003d87" stroke-width="2" fill="#6db1ff"/><use xlink:href="#I" transform="matrix(1,0,0,1,2092,732) translate(18.061728395061728 38.77777777777778)"/><use xlink:href="#J" transform="matrix(1,0,0,1,2092,732) translate(87.1358024691358 38.77777777777778)"/><use xlink:href="#K" transform="matrix(1,0,0,1,2092,732) translate(27.907407407407412 65.44444444444446)"/><path d="M2320.47 962.62h-.94v-71.95h.94zM2315 779.6l1 .24.94.4.87.52.78.66.66.77.53.86.4.94.23 1 .07.98v83.35h-.94v-83.3l-.07-.9-.2-.84-.34-.8-.45-.75-.56-.66-.65-.57-.74-.45-.8-.33-.84-.2-.88-.07h-72.48v-.96h72.52z" stroke="#3a414a" stroke-width=".05" fill="#3a414a"/><path d="M2241.5 780.48h-.5v-.96h.5z" fill="#3a414a"/><path stroke="#3a414a" stroke-width=".05" fill="#3a414a"/><path d="M2320 977.38l-4.64-14.26h9.28z" fill="#3a414a"/><path d="M2320 978.92l-5.3-16.28h10.6zm-3.98-15.33l3.98 12.25 3.98-12.26z" stroke="#3a414a" stroke-width=".05" fill="#3a414a"/><use xlink:href="#L" transform="matrix(1,0,0,1,2291.456790123457,869.3333333333334) translate(0 14.222222222222223)"/><path d="M2240 986a6 6 0 0 1 6-6h148a6 6 0 0 1 6 6v108a6 6 0 0 1-6 6h-148a6 6 0 0 1-6-6z" stroke="#003d87" stroke-width="2" fill="#6db1ff"/><use xlink:href="#M" transform="matrix(1,0,0,1,2252,992) translate(10.746913580246911 53.77777777777778)"/><use xlink:href="#N" transform="matrix(1,0,0,1,2252,992) translate(72.35185185185185 53.77777777777778)"/><path d="M2039.47 773.98l.08.88.2.85.33.8.45.75.56.66.65.57.74.45.8.33.84.2.88.07h33.48v.96h-33.52l-1-.08-.98-.24-.94-.4-.87-.52-.78-.66-.66-.77-.53-.86-.4-.94-.23-1-.07-.98V549.55h.94zm163.15-473.5h-157.6l-.88.06-.85.2-.8.34-.75.45-.66.56-.57.65-.45.74-.33.8-.2.84-.08.88v222.2h-.94V305.98l.07-1 .24-.98.4-.94.52-.87.66-.78.77-.66.86-.53.94-.4 1-.23.98-.08h157.64z" stroke="#e81313" stroke-width=".05" fill="#e81313"/><path d="M2079 780.48h-.5v-.96h.5z" fill="#e81313"/><path stroke="#e81313" stroke-width=".05" fill="#e81313"/><path d="M2217.38 300l-14.26 4.63v-9.26z" fill="#e81313"/><path d="M2218.92 300l-16.28 5.3v-10.6zm-15.33 3.98l12.24-3.98-12.25-3.98z" stroke="#e81313" stroke-width=".05" fill="#e81313"/><use xlink:href="#O" transform="matrix(1,0,0,1,1993.2469635802465,528.2203374290532) translate(0 14.222222222222223)"/><use xlink:href="#P" transform="matrix(1,0,0,1,1993.2469635802465,528.2203374290532) translate(34.41975308641976 14.222222222222223)"/><path d="M2120 1446a6 6 0 0 1 6-6h148a6 6 0 0 1 6 6v108a6 6 0 0 1-6 6h-148a6 6 0 0 1-6-6z" stroke="#003d87" stroke-width="2" fill="#6db1ff"/><use xlink:href="#Q" transform="matrix(1,0,0,1,2132,1452) translate(7.382716049382715 53.77777777777778)"/><use xlink:href="#R" transform="matrix(1,0,0,1,2132,1452) translate(58.30864197530864 53.77777777777778)"/><use xlink:href="#S" transform="matrix(1,0,0,1,2132,1452) translate(89.17283950617283 53.77777777777778)"/><path d="M2200 1561.5v81.12" stroke="#3a414a" fill="none"/><path d="M2200.47 1561.5h-.94v-.5h.94z" stroke="#3a414a" stroke-width=".05" fill="#3a414a"/><path d="M2200 1657.38l-4.64-14.26h9.28z" stroke="#3a414a" fill="#3a414a"/><path d="M2120 1666a6 6 0 0 1 6-6h148a6 6 0 0 1 6 6v108a6 6 0 0 1-6 6h-148a6 6 0 0 1-6-6z" stroke="#003d87" stroke-width="2" fill="#6db1ff"/><use xlink:href="#T" transform="matrix(1,0,0,1,2132,1672) translate(26.672839506172842 25.77777777777778)"/><use xlink:href="#U" transform="matrix(1,0,0,1,2132,1672) translate(10.68518518518519 52.44444444444445)"/><use xlink:href="#V" transform="matrix(1,0,0,1,2132,1672) translate(67.41358024691358 52.44444444444445)"/><use xlink:href="#W" transform="matrix(1,0,0,1,2132,1672) translate(-29.962962962962948 79.11111111111111)"/><path d="M2320 1101.5v81.12" stroke="#3a414a" fill="none"/><path d="M2320.47 1101.5h-.94v-.5h.94z" stroke="#3a414a" stroke-width=".05" fill="#3a414a"/><path d="M2320 1197.38l-4.64-14.26h9.28z" stroke="#3a414a" fill="#3a414a"/><path d="M2240 1206a6 6 0 0 1 6-6h148a6 6 0 0 1 6 6v108a6 6 0 0 1-6 6h-148a6 6 0 0 1-6-6z" stroke="#003d87" stroke-width="2" fill="#6db1ff"/><g><use xlink:href="#X" transform="matrix(1,0,0,1,2252,1212) translate(34.72839506172839 38.77777777777778)"/><use xlink:href="#Y" transform="matrix(1,0,0,1,2252,1212) translate(29.111111111111114 65.44444444444446)"/></g><path d="M2401.5 1260h10.1m10.1 0h20.22m10.1 0h20.22m10.1 0h20.22m10.1 0h20.22m10.1 0h20.2m10.12 0h20.2m10.12 0h20.2m10.1 0h20.23m10.1 0h20.2m10.12 0h20.2m10.12 0h20.2m10.1 0h20.22m10.1 0h20.22m10.1 0h20.2m10.12 0h20.2m10.12 0h20.2m10.1 0H2927m10.1 0h20.22m10.1 0h20.22m10.1 0h20.22m10.1 0h20.22m10.1 0h20.2m10.12 0h20.2m10.12 0h20.2m10.1 0h20.23m10.1 0h20.2m10.12 0h20.2m10.12 0h20.2m10.1 0h20.22m10.1 0h20.2m10.12 0h20.2m10.12 0h20.2m10.1 0h20.23m10.1 0h20.2m10.1 0h10.12" stroke="#ba23f6" fill="none"/><path d="M2401.5 1260.47h-.5v-.94h.5z" stroke="#ba23f6" stroke-width=".05" fill="#ba23f6"/><path d="M3477.38 1260l-14.26 4.63v-9.27z" stroke="#ba23f6" fill="#ba23f6"/><path d="M2320 1321.5v52.5a6 6 0 0 1-6 6h-106a6 6 0 0 0-6 6v36.62" stroke="#3a414a" fill="none"/><path d="M2320.47 1321.5h-.94v-.5h.94z" stroke="#3a414a" stroke-width=".05" fill="#3a414a"/><path d="M2202 1437.38l-4.64-14.26h9.28z" stroke="#3a414a" fill="#3a414a"/><path d="M3140.47 1951.95h-.94v-136.62h.94zm0-157.95h-.94v-152.5h.94z" stroke="#e81313" stroke-width=".05" fill="#e81313"/><path d="M3140.47 1641.5h-.94v-.5h.94z" fill="#e81313"/><path stroke="#e81313" stroke-width=".05" fill="#e81313"/><path d="M3140 1966.7l-4.64-14.25h9.28z" fill="#e81313"/><path d="M3140 1968.25l-5.3-16.28h10.6zm-3.98-15.33l3.98 12.26 3.98-12.26z" stroke="#e81313" stroke-width=".05" fill="#e81313"/><g><use xlink:href="#Z" transform="matrix(1,0,0,1,3086.814814814815,1793.9999999999998) translate(0 14.222222222222223)"/><use xlink:href="#aa" transform="matrix(1,0,0,1,3086.814814814815,1793.9999999999998) translate(31.506172839506174 14.222222222222223)"/><use xlink:href="#ab" transform="matrix(1,0,0,1,3086.814814814815,1793.9999999999998) translate(63.95061728395062 14.222222222222223)"/></g><path d="M3060 1975.33a6 6 0 0 1 6-6h148a6 6 0 0 1 6 6V2094a6 6 0 0 1-6 6h-148a6 6 0 0 1-6-6z" stroke="#003d87" stroke-width="2" fill="#6db1ff"/><g><use xlink:href="#ac" transform="matrix(1,0,0,1,3072,1981.3333333333333) translate(13.833333333333336 21.12152777777778)"/><use xlink:href="#ad" transform="matrix(1,0,0,1,3072,1981.3333333333333) translate(75.37654320987654 21.12152777777778)"/><use xlink:href="#ae" transform="matrix(1,0,0,1,3072,1981.3333333333333) translate(16.858024691358025 47.78819444444444)"/><use xlink:href="#af" transform="matrix(1,0,0,1,3072,1981.3333333333333) translate(100.62345679012346 47.78819444444444)"/><use xlink:href="#ag" transform="matrix(1,0,0,1,3072,1981.3333333333333) translate(21.086419753086425 74.45486111111111)"/><use xlink:href="#ah" transform="matrix(1,0,0,1,3072,1981.3333333333333) translate(96.39506172839506 74.45486111111111)"/><use xlink:href="#ai" transform="matrix(1,0,0,1,3072,1981.3333333333333) translate(0.7469135802469111 101.12152777777777)"/><use xlink:href="#Y" transform="matrix(1,0,0,1,3072,1981.3333333333333) translate(57.4753086419753 101.12152777777777)"/></g><path d="M2200.47 2153.98l.07.88.2.85.34.8.45.75.56.66.65.57.74.45.8.33.84.2.88.08h187.26v.94h-187.3l-1-.07-.98-.24-.94-.4-.87-.52-.78-.66-.66-.77-.53-.86-.4-.94-.23-1-.07-.98V1781.5h.94z" stroke="#3a414a" stroke-width=".05" fill="#3a414a"/><path d="M2200.47 1781.5h-.94v-.5h.94z" fill="#3a414a"/><path stroke="#3a414a" stroke-width=".05" fill="#3a414a"/><path d="M2408.05 2160l-14.27 4.64v-9.28z" fill="#3a414a"/><path d="M2409.6 2160l-16.3 5.3v-10.6zm-15.34 3.98l12.25-3.98-12.24-3.98z" stroke="#3a414a" stroke-width=".05" fill="#3a414a"/><defs><path d="M190 0L58-211 59 0H30v-248h39L202-35l-2-213h31V0h-41" id="aj"/><path d="M100-194c63 0 86 42 84 106H49c0 40 14 67 53 68 26 1 43-12 49-29l28 8c-11 28-37 45-77 45C44 4 14-33 15-96c1-61 26-98 85-98zm52 81c6-60-76-77-97-28-3 7-6 17-6 28h103" id="ak"/><path d="M206 0h-36l-40-164L89 0H53L-1-190h32L70-26l43-164h34l41 164 42-164h31" id="al"/><g id="a"><use transform="matrix(0.06172839506172839,0,0,0.06172839506172839,0,0)" xlink:href="#aj"/><use transform="matrix(0.06172839506172839,0,0,0.06172839506172839,15.987654320987653,0)" xlink:href="#ak"/><use transform="matrix(0.06172839506172839,0,0,0.06172839506172839,28.333333333333332,0)" xlink:href="#al"/></g><path d="M232-93c-1 65-40 97-104 97C67 4 28-28 28-90v-158h33c8 89-33 224 67 224 102 0 64-133 71-224h33v155" id="am"/><path d="M135-143c-3-34-86-38-87 0 15 53 115 12 119 90S17 21 10-45l28-5c4 36 97 45 98 0-10-56-113-15-118-90-4-57 82-63 122-42 12 7 21 19 24 35" id="an"/><path d="M114-163C36-179 61-72 57 0H25l-1-190h30c1 12-1 29 2 39 6-27 23-49 58-41v29" id="ao"/><g id="b"><use transform="matrix(0.06172839506172839,0,0,0.06172839506172839,0,0)" xlink:href="#am"/><use transform="matrix(0.06172839506172839,0,0,0.06172839506172839,15.987654320987653,0)" xlink:href="#an"/><use transform="matrix(0.06172839506172839,0,0,0.06172839506172839,27.098765432098766,0)" xlink:href="#ak"/><use transform="matrix(0.06172839506172839,0,0,0.06172839506172839,39.44444444444444,0)" xlink:href="#ao"/></g><path d="M30 0v-248h187v28H63v79h144v27H63v87h162V0H30" id="ap"/><path d="M141 0L90-78 38 0H4l68-98-65-92h35l48 74 47-74h35l-64 92 68 98h-35" id="aq"/><path d="M24-231v-30h32v30H24zM24 0v-190h32V0H24" id="ar"/><path d="M59-47c-2 24 18 29 38 22v24C64 9 27 4 27-40v-127H5v-23h24l9-43h21v43h35v23H59v120" id="as"/><path d="M117-194c89-4 53 116 60 194h-32v-121c0-31-8-49-39-48C34-167 62-67 57 0H25l-1-190h30c1 10-1 24 2 32 11-22 29-35 61-36" id="at"/><path d="M177-190C167-65 218 103 67 71c-23-6-38-20-44-43l32-5c15 47 100 32 89-28v-30C133-14 115 1 83 1 29 1 15-40 15-95c0-56 16-97 71-98 29-1 48 16 59 35 1-10 0-23 2-32h30zM94-22c36 0 50-32 50-73 0-42-14-75-50-75-39 0-46 34-46 75s6 73 46 73" id="au"/><g id="c"><use transform="matrix(0.06172839506172839,0,0,0.06172839506172839,0,0)" xlink:href="#ap"/><use transform="matrix(0.06172839506172839,0,0,0.06172839506172839,14.814814814814813,0)" xlink:href="#aq"/><use transform="matrix(0.06172839506172839,0,0,0.06172839506172839,25.925925925925924,0)" xlink:href="#ar"/><use transform="matrix(0.06172839506172839,0,0,0.06172839506172839,30.80246913580247,0)" xlink:href="#an"/><use transform="matrix(0.06172839506172839,0,0,0.06172839506172839,41.91358024691358,0)" xlink:href="#as"/><use transform="matrix(0.06172839506172839,0,0,0.06172839506172839,48.086419753086425,0)" xlink:href="#ar"/><use transform="matrix(0.06172839506172839,0,0,0.06172839506172839,52.96296296296297,0)" xlink:href="#at"/><use transform="matrix(0.06172839506172839,0,0,0.06172839506172839,65.30864197530865,0)" xlink:href="#au"/></g><path d="M84 4C-5 8 30-112 23-190h32v120c0 31 7 50 39 49 72-2 45-101 50-169h31l1 190h-30c-1-10 1-25-2-33-11 22-28 36-60 37" id="av"/><g id="d"><use transform="matrix(0.06172839506172839,0,0,0.06172839506172839,0,0)" xlink:href="#av"/><use transform="matrix(0.06172839506172839,0,0,0.06172839506172839,12.345679012345679,0)" xlink:href="#an"/><use transform="matrix(0.06172839506172839,0,0,0.06172839506172839,23.45679012345679,0)" xlink:href="#ak"/><use transform="matrix(0.06172839506172839,0,0,0.06172839506172839,35.80246913580247,0)" xlink:href="#ao"/></g><path d="M233-177c-1 41-23 64-60 70L243 0h-38l-65-103H63V0H30v-248c88 3 205-21 203 71zM63-129c60-2 137 13 137-47 0-61-80-42-137-45v92" id="aw"/><g id="e"><use transform="matrix(0.06172839506172839,0,0,0.06172839506172839,0,0)" xlink:href="#aw"/><use transform="matrix(0.06172839506172839,0,0,0.06172839506172839,15.987654320987653,0)" xlink:href="#ak"/><use transform="matrix(0.06172839506172839,0,0,0.06172839506172839,28.333333333333332,0)" xlink:href="#an"/><use transform="matrix(0.06172839506172839,0,0,0.06172839506172839,39.44444444444444,0)" xlink:href="#ak"/><use transform="matrix(0.06172839506172839,0,0,0.06172839506172839,51.79012345679012,0)" xlink:href="#as"/></g><path d="M30-248c87 1 191-15 191 75 0 78-77 80-158 76V0H30v-248zm33 125c57 0 124 11 124-50 0-59-68-47-124-48v98" id="ax"/><path d="M266 0h-40l-56-210L115 0H75L2-248h35L96-30l15-64 43-154h32l59 218 59-218h35" id="ay"/><g id="f"><use transform="matrix(0.06172839506172839,0,0,0.06172839506172839,0,0)" xlink:href="#ax"/><use transform="matrix(0.06172839506172839,0,0,0.06172839506172839,14.814814814814813,0)" xlink:href="#ay"/></g><path fill="#333" d="M175 0L67-191c6 58 2 128 3 191H24v-248h59L193-55c-6-58-2-129-3-193h46V0h-61" id="az"/><path fill="#333" d="M110-194c64 0 96 36 96 99 0 64-35 99-97 99-61 0-95-36-95-99 0-62 34-99 96-99zm-1 164c35 0 45-28 45-65 0-40-10-65-43-65-34 0-45 26-45 65 0 36 10 65 43 65" id="aA"/><g id="g"><use transform="matrix(0.04938271604938272,0,0,0.04938271604938272,0,0)" xlink:href="#az"/><use transform="matrix(0.04938271604938272,0,0,0.04938271604938272,12.790123456790125,0)" xlink:href="#aA"/></g><path d="M137 0h-34L2-248h35l83 218 83-218h36" id="aB"/><path d="M141-36C126-15 110 5 73 4 37 3 15-17 15-53c-1-64 63-63 125-63 3-35-9-54-41-54-24 1-41 7-42 31l-33-3c5-37 33-52 76-52 45 0 72 20 72 64v82c-1 20 7 32 28 27v20c-31 9-61-2-59-35zM48-53c0 20 12 33 32 33 41-3 63-29 60-74-43 2-92-5-92 41" id="aC"/><path d="M24 0v-261h32V0H24" id="aD"/><path d="M85-194c31 0 48 13 60 33l-1-100h32l1 261h-30c-2-10 0-23-3-31C134-8 116 4 85 4 32 4 16-35 15-94c0-66 23-100 70-100zm9 24c-40 0-46 34-46 75 0 40 6 74 45 74 42 0 51-32 51-76 0-42-9-74-50-73" id="aE"/><g id="h"><use transform="matrix(0.06172839506172839,0,0,0.06172839506172839,0,0)" xlink:href="#aB"/><use transform="matrix(0.06172839506172839,0,0,0.06172839506172839,13.148148148148147,0)" xlink:href="#aC"/><use transform="matrix(0.06172839506172839,0,0,0.06172839506172839,25.493827160493826,0)" xlink:href="#aD"/><use transform="matrix(0.06172839506172839,0,0,0.06172839506172839,30.370370370370367,0)" xlink:href="#aC"/><use transform="matrix(0.06172839506172839,0,0,0.06172839506172839,42.716049382716044,0)" xlink:href="#aE"/><use transform="matrix(0.06172839506172839,0,0,0.06172839506172839,55.06172839506172,0)" xlink:href="#aC"/><use transform="matrix(0.06172839506172839,0,0,0.06172839506172839,67.4074074074074,0)" xlink:href="#as"/><use transform="matrix(0.06172839506172839,0,0,0.06172839506172839,73.58024691358024,0)" xlink:href="#ak"/></g><path fill="#333" d="M146-102V0H94v-102L6-248h54l60 105 60-105h54" id="aF"/><path fill="#333" d="M185-48c-13 30-37 53-82 52C43 2 14-33 14-96s30-98 90-98c62 0 83 45 84 108H66c0 31 8 55 39 56 18 0 30-7 34-22zm-45-69c5-46-57-63-70-21-2 6-4 13-4 21h74" id="aG"/><path fill="#333" d="M137-138c1-29-70-34-71-4 15 46 118 7 119 86 1 83-164 76-172 9l43-7c4 19 20 25 44 25 33 8 57-30 24-41C81-84 22-81 20-136c-2-80 154-74 161-7" id="aH"/><g id="i"><use transform="matrix(0.04938271604938272,0,0,0.04938271604938272,0,0)" xlink:href="#aF"/><use transform="matrix(0.04938271604938272,0,0,0.04938271604938272,10.864197530864198,0)" xlink:href="#aG"/><use transform="matrix(0.04938271604938272,0,0,0.04938271604938272,20.74074074074074,0)" xlink:href="#aH"/></g><path d="M197 0v-115H63V0H30v-248h33v105h134v-105h34V0h-34" id="aI"/><g id="j"><use transform="matrix(0.06172839506172839,0,0,0.06172839506172839,0,0)" xlink:href="#aI"/><use transform="matrix(0.06172839506172839,0,0,0.06172839506172839,15.987654320987653,0)" xlink:href="#aC"/><use transform="matrix(0.06172839506172839,0,0,0.06172839506172839,28.333333333333332,0)" xlink:href="#at"/><use transform="matrix(0.06172839506172839,0,0,0.06172839506172839,40.67901234567901,0)" xlink:href="#aE"/><use transform="matrix(0.06172839506172839,0,0,0.06172839506172839,53.02469135802469,0)" xlink:href="#aD"/><use transform="matrix(0.06172839506172839,0,0,0.06172839506172839,57.901234567901234,0)" xlink:href="#ak"/></g><g id="k"><use transform="matrix(0.06172839506172839,0,0,0.06172839506172839,0,0)" xlink:href="#aw"/><use transform="matrix(0.06172839506172839,0,0,0.06172839506172839,15.987654320987653,0)" xlink:href="#ak"/><use transform="matrix(0.06172839506172839,0,0,0.06172839506172839,28.333333333333332,0)" xlink:href="#an"/><use transform="matrix(0.06172839506172839,0,0,0.06172839506172839,39.44444444444444,0)" xlink:href="#ak"/><use transform="matrix(0.06172839506172839,0,0,0.06172839506172839,51.79012345679012,0)" xlink:href="#as"/></g><path fill="#333" d="M240-174c0 40-23 61-54 70L253 0h-59l-57-94H76V0H24v-248c93 4 217-23 216 74zM76-134c48-2 112 12 112-38 0-48-66-32-112-35v73" id="aJ"/><path fill="#333" d="M115-3C79 11 28 4 28-45v-112H4v-33h27l15-45h31v45h36v33H77v99c-1 23 16 31 38 25v30" id="aK"/><g id="l"><use transform="matrix(0.04938271604938272,0,0,0.04938271604938272,0,0)" xlink:href="#aJ"/><use transform="matrix(0.04938271604938272,0,0,0.04938271604938272,12.790123456790125,0)" xlink:href="#aG"/><use transform="matrix(0.04938271604938272,0,0,0.04938271604938272,22.66666666666667,0)" xlink:href="#aH"/><use transform="matrix(0.04938271604938272,0,0,0.04938271604938272,32.543209876543216,0)" xlink:href="#aG"/><use transform="matrix(0.04938271604938272,0,0,0.04938271604938272,42.41975308641976,0)" xlink:href="#aK"/></g><path d="M185-189c-5-48-123-54-124 2 14 75 158 14 163 119 3 78-121 87-175 55-17-10-28-26-33-46l33-7c5 56 141 63 141-1 0-78-155-14-162-118-5-82 145-84 179-34 5 7 8 16 11 25" id="aL"/><path d="M100-194c62-1 85 37 85 99 1 63-27 99-86 99S16-35 15-95c0-66 28-99 85-99zM99-20c44 1 53-31 53-75 0-43-8-75-51-75s-53 32-53 75 10 74 51 75" id="aM"/><g id="m"><use transform="matrix(0.06172839506172839,0,0,0.06172839506172839,0,0)" xlink:href="#aL"/><use transform="matrix(0.06172839506172839,0,0,0.06172839506172839,14.814814814814813,0)" xlink:href="#ak"/><use transform="matrix(0.06172839506172839,0,0,0.06172839506172839,27.160493827160494,0)" xlink:href="#an"/><use transform="matrix(0.06172839506172839,0,0,0.06172839506172839,38.27160493827161,0)" xlink:href="#an"/><use transform="matrix(0.06172839506172839,0,0,0.06172839506172839,49.38271604938272,0)" xlink:href="#ar"/><use transform="matrix(0.06172839506172839,0,0,0.06172839506172839,54.25925925925927,0)" xlink:href="#aM"/><use transform="matrix(0.06172839506172839,0,0,0.06172839506172839,66.60493827160495,0)" xlink:href="#at"/></g><g id="n"><use transform="matrix(0.06172839506172839,0,0,0.06172839506172839,0,0)" xlink:href="#aB"/><use transform="matrix(0.06172839506172839,0,0,0.06172839506172839,13.148148148148147,0)" xlink:href="#aC"/><use transform="matrix(0.06172839506172839,0,0,0.06172839506172839,25.493827160493826,0)" xlink:href="#aD"/><use transform="matrix(0.06172839506172839,0,0,0.06172839506172839,30.370370370370367,0)" xlink:href="#ar"/><use transform="matrix(0.06172839506172839,0,0,0.06172839506172839,35.24691358024691,0)" xlink:href="#aE"/></g><path d="M210-169c-67 3-38 105-44 169h-31v-121c0-29-5-50-35-48C34-165 62-65 56 0H25l-1-190h30c1 10-1 24 2 32 10-44 99-50 107 0 11-21 27-35 58-36 85-2 47 119 55 194h-31v-121c0-29-5-49-35-48" id="aN"/><path d="M115-194c55 1 70 41 70 98S169 2 115 4C84 4 66-9 55-30l1 105H24l-1-265h31l2 30c10-21 28-34 59-34zm-8 174c40 0 45-34 45-75s-6-73-45-74c-42 0-51 32-51 76 0 43 10 73 51 73" id="aO"/><g id="o"><use transform="matrix(0.06172839506172839,0,0,0.06172839506172839,0,0)" xlink:href="#ax"/><use transform="matrix(0.06172839506172839,0,0,0.06172839506172839,14.814814814814813,0)" xlink:href="#ao"/><use transform="matrix(0.06172839506172839,0,0,0.06172839506172839,22.160493827160494,0)" xlink:href="#aM"/><use transform="matrix(0.06172839506172839,0,0,0.06172839506172839,34.50617283950617,0)" xlink:href="#aN"/><use transform="matrix(0.06172839506172839,0,0,0.06172839506172839,52.96296296296296,0)" xlink:href="#aO"/><use transform="matrix(0.06172839506172839,0,0,0.06172839506172839,65.30864197530865,0)" xlink:href="#as"/></g><g id="p"><use transform="matrix(0.06172839506172839,0,0,0.06172839506172839,0,0)" xlink:href="#av"/><use transform="matrix(0.06172839506172839,0,0,0.06172839506172839,12.345679012345679,0)" xlink:href="#an"/><use transform="matrix(0.06172839506172839,0,0,0.06172839506172839,23.45679012345679,0)" xlink:href="#ak"/><use transform="matrix(0.06172839506172839,0,0,0.06172839506172839,35.80246913580247,0)" xlink:href="#ao"/></g><path d="M101-234c-31-9-42 10-38 44h38v23H63V0H32v-167H5v-23h27c-7-52 17-82 69-68v24" id="aP"/><g id="q"><use transform="matrix(0.06172839506172839,0,0,0.06172839506172839,0,0)" xlink:href="#aP"/><use transform="matrix(0.06172839506172839,0,0,0.06172839506172839,6.172839506172839,0)" xlink:href="#aM"/><use transform="matrix(0.06172839506172839,0,0,0.06172839506172839,18.51851851851852,0)" xlink:href="#ao"/></g><g id="r"><use transform="matrix(0.06172839506172839,0,0,0.06172839506172839,0,0)" xlink:href="#av"/><use transform="matrix(0.06172839506172839,0,0,0.06172839506172839,12.345679012345679,0)" xlink:href="#an"/><use transform="matrix(0.06172839506172839,0,0,0.06172839506172839,23.45679012345679,0)" xlink:href="#ak"/><use transform="matrix(0.06172839506172839,0,0,0.06172839506172839,35.80246913580247,0)" xlink:href="#ao"/><use transform="matrix(0.06172839506172839,0,0,0.06172839506172839,43.148148148148145,0)" xlink:href="#at"/><use transform="matrix(0.06172839506172839,0,0,0.06172839506172839,55.49382716049382,0)" xlink:href="#aC"/><use transform="matrix(0.06172839506172839,0,0,0.06172839506172839,67.8395061728395,0)" xlink:href="#aN"/><use transform="matrix(0.06172839506172839,0,0,0.06172839506172839,86.29629629629629,0)" xlink:href="#ak"/></g><g id="s"><use transform="matrix(0.06172839506172839,0,0,0.06172839506172839,0,0)" xlink:href="#aC"/><use transform="matrix(0.06172839506172839,0,0,0.06172839506172839,12.345679012345679,0)" xlink:href="#at"/><use transform="matrix(0.06172839506172839,0,0,0.06172839506172839,24.691358024691358,0)" xlink:href="#aE"/></g><g id="t"><use transform="matrix(0.06172839506172839,0,0,0.06172839506172839,0,0)" xlink:href="#aO"/><use transform="matrix(0.06172839506172839,0,0,0.06172839506172839,12.345679012345679,0)" xlink:href="#aC"/><use transform="matrix(0.06172839506172839,0,0,0.06172839506172839,24.691358024691358,0)" xlink:href="#an"/><use transform="matrix(0.06172839506172839,0,0,0.06172839506172839,35.80246913580247,0)" xlink:href="#an"/><use transform="matrix(0.06172839506172839,0,0,0.06172839506172839,46.91358024691358,0)" xlink:href="#al"/><use transform="matrix(0.06172839506172839,0,0,0.06172839506172839,62.901234567901234,0)" xlink:href="#aM"/><use transform="matrix(0.06172839506172839,0,0,0.06172839506172839,75.24691358024691,0)" xlink:href="#ao"/><use transform="matrix(0.06172839506172839,0,0,0.06172839506172839,82.5925925925926,0)" xlink:href="#aE"/></g><path fill="#333" d="M135-194c87-1 58 113 63 194h-50c-7-57 23-157-34-157-59 0-34 97-39 157H25l-1-190h47c2 12-1 28 3 38 12-26 28-41 61-42" id="aQ"/><g id="u"><use transform="matrix(0.04938271604938272,0,0,0.04938271604938272,0,0)" xlink:href="#aQ"/><use transform="matrix(0.04938271604938272,0,0,0.04938271604938272,10.814814814814815,0)" xlink:href="#aA"/></g><path d="M101-251c82-7 93 87 43 132L82-64C71-53 59-42 53-27h129V0H18c2-99 128-94 128-182 0-28-16-43-45-43s-46 15-49 41l-32-3c6-41 34-60 81-64" id="aR"/><path d="M63-220v92h138v28H63V0H30v-248h175v28H63" id="aS"/><path d="M205 0l-28-72H64L36 0H1l101-248h38L239 0h-34zm-38-99l-47-123c-12 45-31 82-46 123h93" id="aT"/><g id="v"><use transform="matrix(0.06172839506172839,0,0,0.06172839506172839,0,0)" xlink:href="#aR"/><use transform="matrix(0.06172839506172839,0,0,0.06172839506172839,12.345679012345679,0)" xlink:href="#aS"/><use transform="matrix(0.06172839506172839,0,0,0.06172839506172839,24.629629629629626,0)" xlink:href="#aT"/></g><path fill="#333" d="M123 10C108 53 80 86 19 72V37c35 8 53-11 59-39L3-190h52l48 148c12-52 28-100 44-148h51" id="aU"/><g id="w"><use transform="matrix(0.04938271604938272,0,0,0.04938271604938272,0,0)" xlink:href="#aU"/><use transform="matrix(0.04938271604938272,0,0,0.04938271604938272,9.876543209876544,0)" xlink:href="#aG"/><use transform="matrix(0.04938271604938272,0,0,0.04938271604938272,19.75308641975309,0)" xlink:href="#aH"/></g><g id="x"><use transform="matrix(0.06172839506172839,0,0,0.06172839506172839,0,0)" xlink:href="#aw"/><use transform="matrix(0.06172839506172839,0,0,0.06172839506172839,15.987654320987653,0)" xlink:href="#ak"/><use transform="matrix(0.06172839506172839,0,0,0.06172839506172839,28.333333333333332,0)" xlink:href="#aE"/><use transform="matrix(0.06172839506172839,0,0,0.06172839506172839,40.67901234567901,0)" xlink:href="#ar"/><use transform="matrix(0.06172839506172839,0,0,0.06172839506172839,45.55555555555556,0)" xlink:href="#an"/></g><path d="M140-251c81 0 123 46 123 126C263-46 219 4 140 4 59 4 17-45 17-125s42-126 123-126zm0 227c63 0 89-41 89-101s-29-99-89-99c-61 0-89 39-89 99S79-25 140-24" id="aV"/><path d="M106-169C34-169 62-67 57 0H25v-261h32l-1 103c12-21 28-36 61-36 89 0 53 116 60 194h-32v-121c2-32-8-49-39-48" id="aW"/><g id="y"><use transform="matrix(0.06172839506172839,0,0,0.06172839506172839,0,0)" xlink:href="#aV"/><use transform="matrix(0.06172839506172839,0,0,0.06172839506172839,17.28395061728395,0)" xlink:href="#as"/><use transform="matrix(0.06172839506172839,0,0,0.06172839506172839,23.456790123456788,0)" xlink:href="#aW"/><use transform="matrix(0.06172839506172839,0,0,0.06172839506172839,35.80246913580247,0)" xlink:href="#ak"/><use transform="matrix(0.06172839506172839,0,0,0.06172839506172839,48.148148148148145,0)" xlink:href="#ao"/></g><path d="M143 0L79-87 56-68V0H24v-261h32v163l83-92h37l-77 82L181 0h-38" id="aX"/><g id="z"><use transform="matrix(0.06172839506172839,0,0,0.06172839506172839,0,0)" xlink:href="#al"/><use transform="matrix(0.06172839506172839,0,0,0.06172839506172839,15.987654320987653,0)" xlink:href="#aM"/><use transform="matrix(0.06172839506172839,0,0,0.06172839506172839,28.333333333333332,0)" xlink:href="#ao"/><use transform="matrix(0.06172839506172839,0,0,0.06172839506172839,35.67901234567901,0)" xlink:href="#aX"/><use transform="matrix(0.06172839506172839,0,0,0.06172839506172839,46.79012345679013,0)" xlink:href="#aP"/><use transform="matrix(0.06172839506172839,0,0,0.06172839506172839,52.96296296296297,0)" xlink:href="#aD"/><use transform="matrix(0.06172839506172839,0,0,0.06172839506172839,57.83950617283951,0)" xlink:href="#aM"/><use transform="matrix(0.06172839506172839,0,0,0.06172839506172839,70.18518518518519,0)" xlink:href="#al"/><use transform="matrix(0.06172839506172839,0,0,0.06172839506172839,86.17283950617285,0)" xlink:href="#an"/></g><path d="M240 0l2-218c-23 76-54 145-80 218h-23L58-218 59 0H30v-248h44l77 211c21-75 51-140 76-211h43V0h-30" id="aY"/><path d="M179-190L93 31C79 59 56 82 12 73V49c39 6 53-20 64-50L1-190h34L92-34l54-156h33" id="aZ"/><path d="M140-251c81 0 123 46 123 126C263-53 228-8 163 1c7 30 30 48 69 40v23c-55 16-95-15-103-61C56-3 17-48 17-125c0-80 42-126 123-126zm0 227c63 0 89-41 89-101s-29-99-89-99c-61 0-89 39-89 99S79-25 140-24" id="ba"/><path d="M30 0v-248h33v221h125V0H30" id="bb"/><g id="A"><use transform="matrix(0.06172839506172839,0,0,0.06172839506172839,0,0)" xlink:href="#aY"/><use transform="matrix(0.06172839506172839,0,0,0.06172839506172839,18.456790123456788,0)" xlink:href="#aZ"/><use transform="matrix(0.06172839506172839,0,0,0.06172839506172839,29.5679012345679,0)" xlink:href="#aL"/><use transform="matrix(0.06172839506172839,0,0,0.06172839506172839,44.38271604938271,0)" xlink:href="#ba"/><use transform="matrix(0.06172839506172839,0,0,0.06172839506172839,61.66666666666666,0)" xlink:href="#bb"/></g><g id="B"><use transform="matrix(0.06172839506172839,0,0,0.06172839506172839,0,0)" xlink:href="#aw"/><use transform="matrix(0.06172839506172839,0,0,0.06172839506172839,15.987654320987653,0)" xlink:href="#ak"/><use transform="matrix(0.06172839506172839,0,0,0.06172839506172839,28.333333333333332,0)" xlink:href="#aP"/><use transform="matrix(0.06172839506172839,0,0,0.06172839506172839,34.50617283950617,0)" xlink:href="#ao"/><use transform="matrix(0.06172839506172839,0,0,0.06172839506172839,41.85185185185185,0)" xlink:href="#ak"/><use transform="matrix(0.06172839506172839,0,0,0.06172839506172839,54.197530864197525,0)" xlink:href="#an"/><use transform="matrix(0.06172839506172839,0,0,0.06172839506172839,65.30864197530863,0)" xlink:href="#aW"/></g><g id="C"><use transform="matrix(0.06172839506172839,0,0,0.06172839506172839,0,0)" xlink:href="#aL"/><use transform="matrix(0.06172839506172839,0,0,0.06172839506172839,14.814814814814813,0)" xlink:href="#ak"/><use transform="matrix(0.06172839506172839,0,0,0.06172839506172839,27.160493827160494,0)" xlink:href="#an"/><use transform="matrix(0.06172839506172839,0,0,0.06172839506172839,38.27160493827161,0)" xlink:href="#an"/><use transform="matrix(0.06172839506172839,0,0,0.06172839506172839,49.38271604938272,0)" xlink:href="#ar"/><use transform="matrix(0.06172839506172839,0,0,0.06172839506172839,54.25925925925927,0)" xlink:href="#aM"/><use transform="matrix(0.06172839506172839,0,0,0.06172839506172839,66.60493827160495,0)" xlink:href="#at"/></g><path fill="#333" d="M140-251c80 0 125 45 125 126S219 4 139 4C58 4 15-44 15-125s44-126 125-126zm-1 214c52 0 73-35 73-88 0-50-21-86-72-86-52 0-73 35-73 86s22 88 72 88" id="bc"/><g id="D"><use transform="matrix(0.04938271604938272,0,0,0.04938271604938272,0,0)" xlink:href="#az"/><use transform="matrix(0.04938271604938272,0,0,0.04938271604938272,12.790123456790125,0)" xlink:href="#bc"/></g><g id="E"><use transform="matrix(0.06172839506172839,0,0,0.06172839506172839,0,0)" xlink:href="#aE"/><use transform="matrix(0.06172839506172839,0,0,0.06172839506172839,12.345679012345679,0)" xlink:href="#aM"/><use transform="matrix(0.06172839506172839,0,0,0.06172839506172839,24.691358024691358,0)" xlink:href="#ak"/><use transform="matrix(0.06172839506172839,0,0,0.06172839506172839,37.03703703703704,0)" xlink:href="#an"/></g><path d="M96-169c-40 0-48 33-48 73s9 75 48 75c24 0 41-14 43-38l32 2c-6 37-31 61-74 61-59 0-76-41-82-99-10-93 101-131 147-64 4 7 5 14 7 22l-32 3c-4-21-16-35-41-35" id="bd"/><g id="F"><use transform="matrix(0.06172839506172839,0,0,0.06172839506172839,0,0)" xlink:href="#aC"/><use transform="matrix(0.06172839506172839,0,0,0.06172839506172839,12.345679012345679,0)" xlink:href="#bd"/><use transform="matrix(0.06172839506172839,0,0,0.06172839506172839,23.45679012345679,0)" xlink:href="#bd"/><use transform="matrix(0.06172839506172839,0,0,0.06172839506172839,34.5679012345679,0)" xlink:href="#aM"/><use transform="matrix(0.06172839506172839,0,0,0.06172839506172839,46.913580246913575,0)" xlink:href="#av"/><use transform="matrix(0.06172839506172839,0,0,0.06172839506172839,59.25925925925925,0)" xlink:href="#at"/><use transform="matrix(0.06172839506172839,0,0,0.06172839506172839,71.60493827160494,0)" xlink:href="#as"/></g><g id="G"><use transform="matrix(0.06172839506172839,0,0,0.06172839506172839,0,0)" xlink:href="#aC"/><use transform="matrix(0.06172839506172839,0,0,0.06172839506172839,12.345679012345679,0)" xlink:href="#aD"/><use transform="matrix(0.06172839506172839,0,0,0.06172839506172839,17.22222222222222,0)" xlink:href="#ao"/><use transform="matrix(0.06172839506172839,0,0,0.06172839506172839,24.5679012345679,0)" xlink:href="#ak"/><use transform="matrix(0.06172839506172839,0,0,0.06172839506172839,36.913580246913575,0)" xlink:href="#aC"/><use transform="matrix(0.06172839506172839,0,0,0.06172839506172839,49.25925925925925,0)" xlink:href="#aE"/></g><g id="H"><use transform="matrix(0.06172839506172839,0,0,0.06172839506172839,0,0)" xlink:href="#ak"/><use transform="matrix(0.06172839506172839,0,0,0.06172839506172839,12.345679012345679,0)" xlink:href="#aq"/><use transform="matrix(0.06172839506172839,0,0,0.06172839506172839,23.45679012345679,0)" xlink:href="#ar"/><use transform="matrix(0.06172839506172839,0,0,0.06172839506172839,28.333333333333336,0)" xlink:href="#an"/><use transform="matrix(0.06172839506172839,0,0,0.06172839506172839,39.44444444444444,0)" xlink:href="#as"/></g><path d="M212-179c-10-28-35-45-73-45-59 0-87 40-87 99 0 60 29 101 89 101 43 0 62-24 78-52l27 14C228-24 195 4 139 4 59 4 22-46 18-125c-6-104 99-153 187-111 19 9 31 26 39 46" id="be"/><g id="I"><use transform="matrix(0.06172839506172839,0,0,0.06172839506172839,0,0)" xlink:href="#be"/><use transform="matrix(0.06172839506172839,0,0,0.06172839506172839,15.987654320987653,0)" xlink:href="#aW"/><use transform="matrix(0.06172839506172839,0,0,0.06172839506172839,28.333333333333332,0)" xlink:href="#ak"/><use transform="matrix(0.06172839506172839,0,0,0.06172839506172839,40.67901234567901,0)" xlink:href="#bd"/><use transform="matrix(0.06172839506172839,0,0,0.06172839506172839,51.79012345679013,0)" xlink:href="#aX"/></g><g id="J"><use transform="matrix(0.06172839506172839,0,0,0.06172839506172839,0,0)" xlink:href="#ax"/><use transform="matrix(0.06172839506172839,0,0,0.06172839506172839,14.814814814814813,0)" xlink:href="#al"/></g><g id="K"><use transform="matrix(0.06172839506172839,0,0,0.06172839506172839,0,0)" xlink:href="#an"/><use transform="matrix(0.06172839506172839,0,0,0.06172839506172839,11.11111111111111,0)" xlink:href="#as"/><use transform="matrix(0.06172839506172839,0,0,0.06172839506172839,17.28395061728395,0)" xlink:href="#ao"/><use transform="matrix(0.06172839506172839,0,0,0.06172839506172839,24.629629629629626,0)" xlink:href="#ak"/><use transform="matrix(0.06172839506172839,0,0,0.06172839506172839,36.9753086419753,0)" xlink:href="#at"/><use transform="matrix(0.06172839506172839,0,0,0.06172839506172839,49.32098765432098,0)" xlink:href="#au"/><use transform="matrix(0.06172839506172839,0,0,0.06172839506172839,61.66666666666666,0)" xlink:href="#as"/><use transform="matrix(0.06172839506172839,0,0,0.06172839506172839,67.83950617283949,0)" xlink:href="#aW"/></g><path fill="#333" d="M169-182c-1-43-94-46-97-3 18 66 151 10 154 114 3 95-165 93-204 36-6-8-10-19-12-30l50-8c3 46 112 56 116 5-17-69-150-10-154-114-4-87 153-88 188-35 5 8 8 18 10 28" id="bf"/><path fill="#333" d="M135-150c-39-12-60 13-60 57V0H25l-1-190h47c2 13-1 29 3 40 6-28 27-53 61-41v41" id="bg"/><path fill="#333" d="M195-6C206 82 75 100 31 46c-4-6-6-13-8-21l49-6c3 16 16 24 34 25 40 0 42-37 40-79-11 22-30 35-61 35-53 0-70-43-70-97 0-56 18-96 73-97 30 0 46 14 59 34l2-30h47zm-90-29c32 0 41-27 41-63 0-35-9-62-40-62-32 0-39 29-40 63 0 36 9 62 39 62" id="bh"/><g id="L"><use transform="matrix(0.04938271604938272,0,0,0.04938271604938272,0,0)" xlink:href="#bf"/><use transform="matrix(0.04938271604938272,0,0,0.04938271604938272,11.851851851851853,0)" xlink:href="#aK"/><use transform="matrix(0.04938271604938272,0,0,0.04938271604938272,17.728395061728396,0)" xlink:href="#bg"/><use transform="matrix(0.04938271604938272,0,0,0.04938271604938272,24.641975308641975,0)" xlink:href="#aA"/><use transform="matrix(0.04938271604938272,0,0,0.04938271604938272,35.45679012345679,0)" xlink:href="#aQ"/><use transform="matrix(0.04938271604938272,0,0,0.04938271604938272,46.27160493827161,0)" xlink:href="#bh"/></g><g id="M"><use transform="matrix(0.06172839506172839,0,0,0.06172839506172839,0,0)" xlink:href="#aB"/><use transform="matrix(0.06172839506172839,0,0,0.06172839506172839,13.580246913580245,0)" xlink:href="#ak"/><use transform="matrix(0.06172839506172839,0,0,0.06172839506172839,25.925925925925924,0)" xlink:href="#ao"/><use transform="matrix(0.06172839506172839,0,0,0.06172839506172839,33.2716049382716,0)" xlink:href="#ar"/><use transform="matrix(0.06172839506172839,0,0,0.06172839506172839,38.148148148148145,0)" xlink:href="#aP"/><use transform="matrix(0.06172839506172839,0,0,0.06172839506172839,44.32098765432099,0)" xlink:href="#aZ"/></g><g id="N"><use transform="matrix(0.06172839506172839,0,0,0.06172839506172839,0,0)" xlink:href="#ak"/><use transform="matrix(0.06172839506172839,0,0,0.06172839506172839,12.345679012345679,0)" xlink:href="#aN"/><use transform="matrix(0.06172839506172839,0,0,0.06172839506172839,30.80246913580247,0)" xlink:href="#aC"/><use transform="matrix(0.06172839506172839,0,0,0.06172839506172839,43.148148148148145,0)" xlink:href="#ar"/><use transform="matrix(0.06172839506172839,0,0,0.06172839506172839,48.02469135802469,0)" xlink:href="#aD"/></g><g id="O"><use transform="matrix(0.04938271604938272,0,0,0.04938271604938272,0,0)" xlink:href="#az"/><use transform="matrix(0.04938271604938272,0,0,0.04938271604938272,12.790123456790125,0)" xlink:href="#aA"/><use transform="matrix(0.04938271604938272,0,0,0.04938271604938272,23.60493827160494,0)" xlink:href="#aK"/></g><g id="P"><use transform="matrix(0.04938271604938272,0,0,0.04938271604938272,0,0)" xlink:href="#bf"/><use transform="matrix(0.04938271604938272,0,0,0.04938271604938272,11.851851851851853,0)" xlink:href="#aK"/><use transform="matrix(0.04938271604938272,0,0,0.04938271604938272,17.728395061728396,0)" xlink:href="#bg"/><use transform="matrix(0.04938271604938272,0,0,0.04938271604938272,24.641975308641975,0)" xlink:href="#aA"/><use transform="matrix(0.04938271604938272,0,0,0.04938271604938272,35.45679012345679,0)" xlink:href="#aQ"/><use transform="matrix(0.04938271604938272,0,0,0.04938271604938272,46.27160493827161,0)" xlink:href="#bh"/></g><path d="M127-220V0H93v-220H8v-28h204v28h-85" id="bi"/><g id="Q"><use transform="matrix(0.06172839506172839,0,0,0.06172839506172839,0,0)" xlink:href="#bi"/><use transform="matrix(0.06172839506172839,0,0,0.06172839506172839,12.716049382716047,0)" xlink:href="#av"/><use transform="matrix(0.06172839506172839,0,0,0.06172839506172839,25.061728395061728,0)" xlink:href="#ao"/><use transform="matrix(0.06172839506172839,0,0,0.06172839506172839,32.407407407407405,0)" xlink:href="#at"/></g><g id="R"><use transform="matrix(0.06172839506172839,0,0,0.06172839506172839,0,0)" xlink:href="#aM"/><use transform="matrix(0.06172839506172839,0,0,0.06172839506172839,12.345679012345679,0)" xlink:href="#at"/></g><g id="S"><use transform="matrix(0.06172839506172839,0,0,0.06172839506172839,0,0)" xlink:href="#aR"/><use transform="matrix(0.06172839506172839,0,0,0.06172839506172839,12.345679012345679,0)" xlink:href="#aS"/><use transform="matrix(0.06172839506172839,0,0,0.06172839506172839,24.629629629629626,0)" xlink:href="#aT"/></g><g id="T"><use transform="matrix(0.06172839506172839,0,0,0.06172839506172839,0,0)" xlink:href="#be"/><use transform="matrix(0.06172839506172839,0,0,0.06172839506172839,15.987654320987653,0)" xlink:href="#aM"/><use transform="matrix(0.06172839506172839,0,0,0.06172839506172839,28.333333333333332,0)" xlink:href="#at"/><use transform="matrix(0.06172839506172839,0,0,0.06172839506172839,40.67901234567901,0)" xlink:href="#at"/><use transform="matrix(0.06172839506172839,0,0,0.06172839506172839,53.02469135802469,0)" xlink:href="#ak"/><use transform="matrix(0.06172839506172839,0,0,0.06172839506172839,65.37037037037037,0)" xlink:href="#bd"/><use transform="matrix(0.06172839506172839,0,0,0.06172839506172839,76.48148148148148,0)" xlink:href="#as"/></g><g id="U"><use transform="matrix(0.06172839506172839,0,0,0.06172839506172839,0,0)" xlink:href="#aM"/><use transform="matrix(0.06172839506172839,0,0,0.06172839506172839,12.345679012345679,0)" xlink:href="#as"/><use transform="matrix(0.06172839506172839,0,0,0.06172839506172839,18.51851851851852,0)" xlink:href="#aW"/><use transform="matrix(0.06172839506172839,0,0,0.06172839506172839,30.864197530864196,0)" xlink:href="#ak"/><use transform="matrix(0.06172839506172839,0,0,0.06172839506172839,43.20987654320987,0)" xlink:href="#ao"/></g><g id="V"><use transform="matrix(0.06172839506172839,0,0,0.06172839506172839,0,0)" xlink:href="#aD"/><use transform="matrix(0.06172839506172839,0,0,0.06172839506172839,4.876543209876543,0)" xlink:href="#aM"/><use transform="matrix(0.06172839506172839,0,0,0.06172839506172839,17.22222222222222,0)" xlink:href="#au"/><use transform="matrix(0.06172839506172839,0,0,0.06172839506172839,29.5679012345679,0)" xlink:href="#ar"/><use transform="matrix(0.06172839506172839,0,0,0.06172839506172839,34.44444444444444,0)" xlink:href="#at"/><use transform="matrix(0.06172839506172839,0,0,0.06172839506172839,46.79012345679012,0)" xlink:href="#an"/></g><path d="M87 75C49 33 22-17 22-94c0-76 28-126 65-167h31c-38 41-64 92-64 168S80 34 118 75H87" id="bj"/><path d="M0 4l72-265h28L28 4H0" id="bk"/><path d="M33 0v-38h34V0H33" id="bl"/><path d="M33-261c38 41 65 92 65 168S71 34 33 75H2C39 34 66-17 66-93S39-220 2-261h31" id="bm"/><g id="W"><use transform="matrix(0.06172839506172839,0,0,0.06172839506172839,0,0)" xlink:href="#bj"/><use transform="matrix(0.06172839506172839,0,0,0.06172839506172839,7.345679012345679,0)" xlink:href="#au"/><use transform="matrix(0.06172839506172839,0,0,0.06172839506172839,19.691358024691358,0)" xlink:href="#aM"/><use transform="matrix(0.06172839506172839,0,0,0.06172839506172839,32.03703703703704,0)" xlink:href="#aM"/><use transform="matrix(0.06172839506172839,0,0,0.06172839506172839,44.382716049382715,0)" xlink:href="#au"/><use transform="matrix(0.06172839506172839,0,0,0.06172839506172839,56.72839506172839,0)" xlink:href="#aD"/><use transform="matrix(0.06172839506172839,0,0,0.06172839506172839,61.60493827160494,0)" xlink:href="#ak"/><use transform="matrix(0.06172839506172839,0,0,0.06172839506172839,73.95061728395062,0)" xlink:href="#bk"/><use transform="matrix(0.06172839506172839,0,0,0.06172839506172839,80.12345679012346,0)" xlink:href="#aN"/><use transform="matrix(0.06172839506172839,0,0,0.06172839506172839,98.58024691358024,0)" xlink:href="#ar"/><use transform="matrix(0.06172839506172839,0,0,0.06172839506172839,103.45679012345678,0)" xlink:href="#bd"/><use transform="matrix(0.06172839506172839,0,0,0.06172839506172839,114.5679012345679,0)" xlink:href="#ao"/><use transform="matrix(0.06172839506172839,0,0,0.06172839506172839,121.91358024691358,0)" xlink:href="#aM"/><use transform="matrix(0.06172839506172839,0,0,0.06172839506172839,134.25925925925927,0)" xlink:href="#an"/><use transform="matrix(0.06172839506172839,0,0,0.06172839506172839,145.37037037037038,0)" xlink:href="#aM"/><use transform="matrix(0.06172839506172839,0,0,0.06172839506172839,157.71604938271605,0)" xlink:href="#aP"/><use transform="matrix(0.06172839506172839,0,0,0.06172839506172839,163.88888888888889,0)" xlink:href="#as"/><use transform="matrix(0.06172839506172839,0,0,0.06172839506172839,170.06172839506172,0)" xlink:href="#bl"/><use transform="matrix(0.06172839506172839,0,0,0.06172839506172839,176.23456790123456,0)" xlink:href="#bl"/><use transform="matrix(0.06172839506172839,0,0,0.06172839506172839,182.4074074074074,0)" xlink:href="#bl"/><use transform="matrix(0.06172839506172839,0,0,0.06172839506172839,188.58024691358023,0)" xlink:href="#bm"/></g><g id="X"><use transform="matrix(0.06172839506172839,0,0,0.06172839506172839,0,0)" xlink:href="#be"/><use transform="matrix(0.06172839506172839,0,0,0.06172839506172839,15.987654320987653,0)" xlink:href="#ao"/><use transform="matrix(0.06172839506172839,0,0,0.06172839506172839,23.333333333333332,0)" xlink:href="#ak"/><use transform="matrix(0.06172839506172839,0,0,0.06172839506172839,35.67901234567901,0)" xlink:href="#aC"/><use transform="matrix(0.06172839506172839,0,0,0.06172839506172839,48.02469135802469,0)" xlink:href="#as"/><use transform="matrix(0.06172839506172839,0,0,0.06172839506172839,54.19753086419753,0)" xlink:href="#ak"/></g><g id="Y"><use transform="matrix(0.06172839506172839,0,0,0.06172839506172839,0,0)" xlink:href="#aC"/><use transform="matrix(0.06172839506172839,0,0,0.06172839506172839,12.345679012345679,0)" xlink:href="#bd"/><use transform="matrix(0.06172839506172839,0,0,0.06172839506172839,23.45679012345679,0)" xlink:href="#bd"/><use transform="matrix(0.06172839506172839,0,0,0.06172839506172839,34.5679012345679,0)" xlink:href="#aM"/><use transform="matrix(0.06172839506172839,0,0,0.06172839506172839,46.913580246913575,0)" xlink:href="#av"/><use transform="matrix(0.06172839506172839,0,0,0.06172839506172839,59.25925925925925,0)" xlink:href="#at"/><use transform="matrix(0.06172839506172839,0,0,0.06172839506172839,71.60493827160494,0)" xlink:href="#as"/></g><path fill="#333" d="M88-194c31-1 46 15 58 34l-1-101h50l1 261h-48c-2-10 0-23-3-31C134-8 116 4 84 4 32 4 16-41 15-95c0-56 19-97 73-99zm17 164c33 0 40-30 41-66 1-37-9-64-41-64s-38 30-39 65c0 43 13 65 39 65" id="bn"/><path fill="#333" d="M25-224v-37h50v37H25zM25 0v-190h50V0H25" id="bo"/><g id="Z"><use transform="matrix(0.04938271604938272,0,0,0.04938271604938272,0,0)" xlink:href="#bn"/><use transform="matrix(0.04938271604938272,0,0,0.04938271604938272,10.814814814814815,0)" xlink:href="#bo"/><use transform="matrix(0.04938271604938272,0,0,0.04938271604938272,15.753086419753087,0)" xlink:href="#bn"/></g><g id="aa"><use transform="matrix(0.04938271604938272,0,0,0.04938271604938272,0,0)" xlink:href="#aQ"/><use transform="matrix(0.04938271604938272,0,0,0.04938271604938272,10.814814814814815,0)" xlink:href="#aA"/><use transform="matrix(0.04938271604938272,0,0,0.04938271604938272,21.62962962962963,0)" xlink:href="#aK"/></g><g id="ab"><use transform="matrix(0.04938271604938272,0,0,0.04938271604938272,0,0)" xlink:href="#bg"/><use transform="matrix(0.04938271604938272,0,0,0.04938271604938272,6.913580246913581,0)" xlink:href="#aG"/><use transform="matrix(0.04938271604938272,0,0,0.04938271604938272,16.790123456790127,0)" xlink:href="#aH"/><use transform="matrix(0.04938271604938272,0,0,0.04938271604938272,26.666666666666668,0)" xlink:href="#aG"/><use transform="matrix(0.04938271604938272,0,0,0.04938271604938272,36.543209876543216,0)" xlink:href="#aK"/></g><g id="ac"><use transform="matrix(0.06172839506172839,0,0,0.06172839506172839,0,0)" xlink:href="#ap"/><use transform="matrix(0.06172839506172839,0,0,0.06172839506172839,14.814814814814813,0)" xlink:href="#aN"/><use transform="matrix(0.06172839506172839,0,0,0.06172839506172839,33.2716049382716,0)" xlink:href="#aC"/><use transform="matrix(0.06172839506172839,0,0,0.06172839506172839,45.61728395061728,0)" xlink:href="#ar"/><use transform="matrix(0.06172839506172839,0,0,0.06172839506172839,50.49382716049382,0)" xlink:href="#aD"/></g><g id="ad"><use transform="matrix(0.06172839506172839,0,0,0.06172839506172839,0,0)" xlink:href="#am"/><use transform="matrix(0.06172839506172839,0,0,0.06172839506172839,15.987654320987653,0)" xlink:href="#an"/><use transform="matrix(0.06172839506172839,0,0,0.06172839506172839,27.098765432098766,0)" xlink:href="#ak"/><use transform="matrix(0.06172839506172839,0,0,0.06172839506172839,39.44444444444444,0)" xlink:href="#ao"/></g><g id="ae"><use transform="matrix(0.06172839506172839,0,0,0.06172839506172839,0,0)" xlink:href="#al"/><use transform="matrix(0.06172839506172839,0,0,0.06172839506172839,15.987654320987653,0)" xlink:href="#aC"/><use transform="matrix(0.06172839506172839,0,0,0.06172839506172839,28.333333333333332,0)" xlink:href="#ao"/><use transform="matrix(0.06172839506172839,0,0,0.06172839506172839,35.67901234567901,0)" xlink:href="#at"/><use transform="matrix(0.06172839506172839,0,0,0.06172839506172839,48.02469135802469,0)" xlink:href="#ar"/><use transform="matrix(0.06172839506172839,0,0,0.06172839506172839,52.901234567901234,0)" xlink:href="#at"/><use transform="matrix(0.06172839506172839,0,0,0.06172839506172839,65.24691358024691,0)" xlink:href="#au"/></g><g id="af"><use transform="matrix(0.06172839506172839,0,0,0.06172839506172839,0,0)" xlink:href="#aM"/><use transform="matrix(0.06172839506172839,0,0,0.06172839506172839,12.345679012345679,0)" xlink:href="#aP"/></g><g id="ag"><use transform="matrix(0.06172839506172839,0,0,0.06172839506172839,0,0)" xlink:href="#aC"/><use transform="matrix(0.06172839506172839,0,0,0.06172839506172839,12.345679012345679,0)" xlink:href="#bd"/><use transform="matrix(0.06172839506172839,0,0,0.06172839506172839,23.45679012345679,0)" xlink:href="#bd"/><use transform="matrix(0.06172839506172839,0,0,0.06172839506172839,34.5679012345679,0)" xlink:href="#ak"/><use transform="matrix(0.06172839506172839,0,0,0.06172839506172839,46.913580246913575,0)" xlink:href="#an"/><use transform="matrix(0.06172839506172839,0,0,0.06172839506172839,58.02469135802468,0)" xlink:href="#an"/></g><g id="ah"><use transform="matrix(0.06172839506172839,0,0,0.06172839506172839,0,0)" xlink:href="#as"/><use transform="matrix(0.06172839506172839,0,0,0.06172839506172839,6.172839506172839,0)" xlink:href="#aM"/></g><g id="ai"><use transform="matrix(0.06172839506172839,0,0,0.06172839506172839,0,0)" xlink:href="#as"/><use transform="matrix(0.06172839506172839,0,0,0.06172839506172839,6.172839506172839,0)" xlink:href="#aW"/><use transform="matrix(0.06172839506172839,0,0,0.06172839506172839,18.51851851851852,0)" xlink:href="#ak"/><use transform="matrix(0.06172839506172839,0,0,0.06172839506172839,30.864197530864196,0)" xlink:href="#ao"/><use transform="matrix(0.06172839506172839,0,0,0.06172839506172839,38.20987654320987,0)" xlink:href="#ak"/></g></defs></g></svg>